<svg xmlns="http://www.w3.org/2000/svg" width="1600" height="900" viewBox="0 0 1600 900">
  <!-- Cumulus at three depths. The far ones are paler - aerial perspective governs the sky too.  GENERATED by scripts/gen-scene.py from scripts/scene.py. Do not hand-edit. -->
  <defs>
    <linearGradient id="sc-sky" x1="0" y1="0" x2="0" y2="1">
      <stop offset="0"    stop-color="#738dbf"/>
      <stop offset="0.46" stop-color="#c8d4ee"/>
      <stop offset="0.82" stop-color="#e6e6e0"/>
      <stop offset="1"    stop-color="#f7f3e9"/>
    </linearGradient>
    <radialGradient id="sc-moonglow">
      <stop offset="0"   stop-color="#d6b66c" stop-opacity="0.55"/>
      <stop offset="0.35" stop-color="#d6b66c" stop-opacity="0.20"/>
      <stop offset="1"   stop-color="#d6b66c" stop-opacity="0"/>
    </radialGradient>
    <filter id="sc-haze" x="-30%" y="-30%" width="160%" height="160%">
      <feGaussianBlur stdDeviation="54"/>
    </filter>
    <filter id="sc-glow" x="-30%" y="-30%" width="160%" height="160%">
      <feGaussianBlur stdDeviation="30"/>
    </filter>
    <mask id="sc-crescent">
      <circle cx="1216" cy="171" r="50" fill="#fff"/>
      <circle cx="1242" cy="156" r="46" fill="#000"/>
    </mask></defs>
  <g fill="#fefefe" opacity="0.42"><ellipse cx="966.7" cy="182.8" rx="23.7" ry="15.3"/><ellipse cx="994.9" cy="173.5" rx="34.6" ry="22.3"/><ellipse cx="1025.5" cy="184.5" rx="21.8" ry="14.0"/><rect x="940.8" y="184.5" width="117.8" height="18.7" rx="9.3"/></g><g fill="#fefefe" opacity="0.42"><ellipse cx="772.6" cy="318.9" rx="21.9" ry="14.1"/><ellipse cx="798.7" cy="310.3" rx="31.9" ry="20.5"/><ellipse cx="826.9" cy="320.4" rx="20.0" ry="12.9"/><rect x="748.8" y="320.4" width="108.5" height="17.2" rx="8.6"/></g><g fill="#fefefe" opacity="0.42"><ellipse cx="1254.2" cy="151.7" rx="25.9" ry="16.7"/><ellipse cx="1285.0" cy="141.5" rx="37.8" ry="24.3"/><ellipse cx="1318.5" cy="153.6" rx="23.8" ry="15.3"/><rect x="1225.9" y="153.6" width="128.6" height="20.4" rx="10.2"/></g><g fill="#fefefe" opacity="0.42"><ellipse cx="1522.9" cy="232.5" rx="26.7" ry="17.2"/><ellipse cx="1554.7" cy="222.0" rx="38.9" ry="25.0"/><ellipse cx="1589.1" cy="234.4" rx="24.5" ry="15.7"/><rect x="1493.7" y="234.4" width="132.4" height="21.0" rx="10.5"/></g><g fill="#fefefe" opacity="0.42"><ellipse cx="887.9" cy="149.8" rx="28.6" ry="18.4"/><ellipse cx="922.0" cy="138.6" rx="41.8" ry="26.9"/><ellipse cx="958.9" cy="151.9" rx="26.3" ry="16.9"/><rect x="856.6" y="151.9" width="142.1" height="22.5" rx="11.3"/></g><g fill="#fefefe" opacity="0.42"><ellipse cx="1339.8" cy="169.4" rx="18.6" ry="12.0"/><ellipse cx="1361.9" cy="162.1" rx="27.2" ry="17.5"/><ellipse cx="1386.0" cy="170.7" rx="17.1" ry="11.0"/><rect x="1319.4" y="170.7" width="92.4" height="14.6" rx="7.3"/></g><g fill="#fefefe" opacity="0.42"><ellipse cx="119.5" cy="213.0" rx="24.6" ry="15.8"/><ellipse cx="148.8" cy="203.3" rx="35.9" ry="23.1"/><ellipse cx="180.5" cy="214.8" rx="22.5" ry="14.5"/><rect x="92.7" y="214.8" width="122.0" height="19.3" rx="9.7"/></g><g fill="#fefefe" opacity="0.66"><ellipse cx="1266.2" cy="409.6" rx="34.1" ry="21.9"/><ellipse cx="1306.8" cy="396.2" rx="49.7" ry="31.9"/><ellipse cx="1350.7" cy="412.1" rx="31.2" ry="20.1"/><rect x="1229.1" y="412.1" width="169.0" height="26.8" rx="13.4"/></g><g fill="#fefefe" opacity="0.66"><ellipse cx="1319.8" cy="332.3" rx="45.2" ry="29.1"/><ellipse cx="1373.6" cy="314.6" rx="65.9" ry="42.4"/><ellipse cx="1431.9" cy="335.6" rx="41.4" ry="26.6"/><rect x="1270.5" y="335.6" width="224.2" height="35.5" rx="17.8"/></g><g fill="#fefefe" opacity="0.66"><ellipse cx="425.0" cy="436.0" rx="28.3" ry="18.2"/><ellipse cx="458.7" cy="424.9" rx="41.3" ry="26.6"/><ellipse cx="495.3" cy="438.1" rx="26.0" ry="16.7"/><rect x="394.1" y="438.1" width="140.6" height="22.3" rx="11.1"/></g><g fill="#fefefe" opacity="0.66"><ellipse cx="814.7" cy="318.6" rx="37.5" ry="24.1"/><ellipse cx="859.4" cy="303.9" rx="54.7" ry="35.2"/><ellipse cx="907.7" cy="321.3" rx="34.4" ry="22.1"/><rect x="773.8" y="321.3" width="186.1" height="29.5" rx="14.7"/></g><g fill="#fefefe" opacity="0.66"><ellipse cx="788.7" cy="316.9" rx="42.2" ry="27.2"/><ellipse cx="839.0" cy="300.3" rx="61.6" ry="39.6"/><ellipse cx="893.5" cy="319.9" rx="38.7" ry="24.9"/><rect x="742.6" y="319.9" width="209.6" height="33.2" rx="16.6"/></g><g fill="#fefefe" opacity="0.88"><ellipse cx="513.2" cy="488.1" rx="48.8" ry="31.4"/><ellipse cx="571.3" cy="468.9" rx="71.2" ry="45.8"/><ellipse cx="634.3" cy="491.6" rx="44.8" ry="28.8"/><rect x="459.9" y="491.6" width="242.3" height="38.4" rx="19.2"/></g><g fill="#fefefe" opacity="0.88"><ellipse cx="215.2" cy="444.1" rx="55.1" ry="35.4"/><ellipse cx="280.8" cy="422.5" rx="80.4" ry="51.7"/><ellipse cx="351.9" cy="448.1" rx="50.5" ry="32.5"/><rect x="155.0" y="448.1" width="273.4" height="43.3" rx="21.7"/></g><g fill="#fefefe" opacity="0.88"><ellipse cx="584.7" cy="474.6" rx="43.2" ry="27.8"/><ellipse cx="636.1" cy="457.7" rx="63.0" ry="40.5"/><ellipse cx="691.7" cy="477.7" rx="39.6" ry="25.4"/><rect x="537.6" y="477.7" width="214.1" height="33.9" rx="17.0"/></g>
</svg>
